<mxfile host="app.diagrams.net" modified="2020-10-27T18:38:05.540Z" agent="5.0 (X11; Linux x86_64) AppleWebKit/537.36 (KHTML, like Gecko) Chrome/86.0.4240.111 Safari/537.36" etag="S78C_G61vHd0f4HQAFRC" version="13.8.3" type="github">
  <diagram id="C5RBs43oDa-KdzZeNtuy" name="Page-1">
    <mxGraphModel dx="823" dy="494" grid="1" gridSize="10" guides="1" tooltips="1" connect="1" arrows="1" fold="1" page="1" pageScale="1" pageWidth="827" pageHeight="1169" math="0" shadow="0">
      <root>
        <mxCell id="WIyWlLk6GJQsqaUBKTNV-0" />
        <mxCell id="WIyWlLk6GJQsqaUBKTNV-1" parent="WIyWlLk6GJQsqaUBKTNV-0" />
        <mxCell id="FoK-p02fnVtHnSvYcFQm-17" value="&lt;p style=&quot;margin: 4px 0px 0px ; text-align: center ; font-size: 13px ; line-height: 120%&quot;&gt;&lt;b style=&quot;font-size: 13px&quot;&gt;Customer&lt;/b&gt;&lt;/p&gt;&lt;hr style=&quot;font-size: 13px&quot;&gt;&lt;p style=&quot;margin: 0px 0px 0px 4px ; font-size: 13px&quot;&gt;Customer ID: Integer&lt;/p&gt;&lt;p style=&quot;margin: 0px 0px 0px 4px ; font-size: 13px&quot;&gt;first name: String&lt;br style=&quot;font-size: 13px&quot;&gt;last name: String&lt;/p&gt;&lt;p style=&quot;margin: 0px 0px 0px 4px ; font-size: 13px&quot;&gt;account email: email&lt;/p&gt;&lt;p style=&quot;margin: 0px 0px 0px 4px ; font-size: 13px&quot;&gt;phone: String&lt;br style=&quot;font-size: 13px&quot;&gt;Gender: String&lt;/p&gt;&lt;p style=&quot;margin: 0px 0px 0px 4px ; font-size: 13px&quot;&gt;Birth date: Date&lt;/p&gt;&lt;p style=&quot;margin: 0px 0px 0px 4px ; font-size: 13px&quot;&gt;&amp;nbsp;&lt;/p&gt;&lt;hr style=&quot;font-size: 13px&quot;&gt;&lt;p style=&quot;margin: 0px 0px 0px 4px ; font-size: 13px&quot;&gt;+ method(): Type&lt;/p&gt;" style="verticalAlign=middle;align=left;overflow=fill;fontSize=13;fontFamily=Helvetica;html=1;labelBorderColor=none;horizontal=1;" vertex="1" parent="WIyWlLk6GJQsqaUBKTNV-1">
          <mxGeometry x="60" y="50" width="160" height="230" as="geometry" />
        </mxCell>
      </root>
    </mxGraphModel>
  </diagram>
</mxfile>
